# xmcd CD database file
# Copyright (C) 1993-1998 Ti Kan
#
# Track frame offsets:
#	180
#	16658
#	27073
#	37813
#	57207
#	68129
#	82150
#	93932
#	106633
#	118599
#	132158
#	147112
#	158712
#	171445
#	180945
#	190032
#	208187
#	220214
#	231769
#	241154
#	253644
#
# Disc length: 3583 seconds
#
# Revision: 1
# Processed by: cddbd v1.4b41PL1 Copyright (c) Steve Scherf et al.
# Submitted via: CDValet v3.31 - Copyright (c) 1997 Greg Leichner
#
DISCID=0c0dfd15
DTITLE=Johnny Powers - Rockabilly Blast -LIVE
DYEAR=1900
DGENRE=
TTITLE0=Rattled
TTITLE1=Trouble
TTITLE2=Bigger Headaches
TTITLE3=You Win Again
TTITLE4=It'll Be Me
TTITLE5=She Knows It
TTITLE6=Mama Rock
TTITLE7=That's Alright Mama
TTITLE8=Honky Tonkin' Saturday Night
TTITLE9=With Your Love, With Your Kiss
TTITLE10=Be Mine
TTITLE11=Fool Such As I
TTITLE12=Whole Lotta Shakin'
TTITLE13=Waitin' For You
TTITLE14=Mean Mistreater
TTITLE15=Whenever You're Ready
TTITLE16=Rocker Billy
TTITLE17=Great Balls Of Fire
TTITLE18=Rock Rock
TTITLE19=Long Blond Hair
TTITLE20=7 Nights To Rock
EXTD=
EXTT0=
EXTT1=
EXTT2=
EXTT3=
EXTT4=
EXTT5=
EXTT6=
EXTT7=
EXTT8=
EXTT9=
EXTT10=
EXTT11=
EXTT12=
EXTT13=
EXTT14=
EXTT15=
EXTT16=
EXTT17=
EXTT18=
EXTT19=
EXTT20=
PLAYORDER=
